<svg id="Layer_1" data-name="Layer 1" xmlns="http://www.w3.org/2000/svg" width="400" height="372.31" viewBox="0 0 400 372.31"><title>smile</title><ellipse cx="106.8" cy="71.61" rx="25.49" ry="71.61"/><path d="M376.7,267.67c-29.19,62.49-97.17,107.16-176.63,107.16S52.56,330.12,23.4,267.58c-.43.43-.83.75-1.26,1.16C50.5,337,119.29,386.16,200.06,386.16S349.58,337,378,268.84C377.54,268.43,377.13,268.1,376.7,267.67Z" transform="translate(0 -13.84)"/><ellipse cx="19.74" cy="263.41" rx="27.35" ry="5.55" transform="translate(-180.48 77.26) rotate(-45)"/><ellipse cx="380.26" cy="263.41" rx="5.55" ry="27.35" transform="translate(-74.88 332.2) rotate(-45)"/><ellipse cx="293.2" cy="71.61" rx="25.49" ry="71.61"/></svg>